<mxfile host="app.diagrams.net" modified="2020-03-15T09:14:51.765Z" agent="Mozilla/5.0 (Windows NT 10.0; Win64; x64) AppleWebKit/537.36 (KHTML, like Gecko) Chrome/79.0.3945.130 Safari/537.36" etag="Sm8n0F5NFyCPnm17PsEl" version="12.8.5" type="github">
  <diagram id="a3skvA90VuoRcX0cUGE5" name="第 1 页">
    <mxGraphModel dx="1209" dy="643" grid="1" gridSize="10" guides="1" tooltips="1" connect="1" arrows="1" fold="1" page="1" pageScale="1" pageWidth="827" pageHeight="1169" math="0" shadow="0">
      <root>
        <mxCell id="0" />
        <mxCell id="1" parent="0" />
        <mxCell id="zfptyrBL6gK-6SH3E1rY-2" style="edgeStyle=orthogonalEdgeStyle;rounded=0;orthogonalLoop=1;jettySize=auto;html=1;exitX=1;exitY=0.5;exitDx=0;exitDy=0;" edge="1" parent="1" source="xhC-MIFGf2CNVYRdOTCl-1" target="zfptyrBL6gK-6SH3E1rY-1">
          <mxGeometry relative="1" as="geometry" />
        </mxCell>
        <mxCell id="zfptyrBL6gK-6SH3E1rY-3" style="edgeStyle=orthogonalEdgeStyle;rounded=0;orthogonalLoop=1;jettySize=auto;html=1;entryX=0;entryY=0.5;entryDx=0;entryDy=0;exitX=0.25;exitY=1;exitDx=0;exitDy=0;" edge="1" parent="1" source="xhC-MIFGf2CNVYRdOTCl-1" target="zfptyrBL6gK-6SH3E1rY-1">
          <mxGeometry relative="1" as="geometry">
            <mxPoint x="130" y="270" as="targetPoint" />
            <mxPoint x="130" y="140" as="sourcePoint" />
          </mxGeometry>
        </mxCell>
        <mxCell id="xhC-MIFGf2CNVYRdOTCl-1" value="流程图" style="rounded=0;whiteSpace=wrap;html=1;" parent="1" vertex="1">
          <mxGeometry x="80" y="30" width="120" height="60" as="geometry" />
        </mxCell>
        <mxCell id="xhC-MIFGf2CNVYRdOTCl-2" value="进程" style="rounded=0;whiteSpace=wrap;html=1;" parent="1" vertex="1">
          <mxGeometry x="180" y="70" width="70" height="30" as="geometry" />
        </mxCell>
        <mxCell id="zfptyrBL6gK-6SH3E1rY-1" value="" style="rounded=0;whiteSpace=wrap;html=1;" vertex="1" parent="1">
          <mxGeometry x="330" y="170" width="120" height="60" as="geometry" />
        </mxCell>
      </root>
    </mxGraphModel>
  </diagram>
</mxfile>
